<svg width="1036" height="422" viewBox="0 0 1036 422" fill="none" xmlns="http://www.w3.org/2000/svg">
<g clip-path="url(#clip0)">
<path d="M508.87 74.5538H165.471V422H508.87V74.5538Z" fill="#F6F2E2"/>
<path d="M508.87 270.912L394.781 320.567L165.471 421.859V206.827C165.471 128.312 242.333 74.4124 337.171 74.4124C432.009 74.4124 508.87 119.824 508.87 193.387V270.912Z" fill="#57B2AD"/>
<path d="M877.465 78.7979H534.066V422H877.465V78.7979Z" fill="#57B2AD"/>
<path d="M877.465 78.7979H534.066V250.399H877.465V78.7979Z" fill="#FAD25A"/>
<path d="M508.87 193.246C508.87 256.482 457.629 307.694 394.357 307.694H355.997H279.843C216.571 307.694 165.33 358.905 165.33 422.141H508.729V377.437V193.246H508.87Z" fill="#6D5BF4"/>
<path d="M877.323 164.669H624.516V250.399H877.323V164.669Z" fill="#6D5BF4"/>
<path d="M791.544 422H619.845C572.426 422 534.066 383.521 534.066 336.27V250.399H791.544C838.963 250.399 877.323 288.878 877.323 336.129C877.465 383.662 838.963 422 791.544 422Z" fill="#F6F2E2"/>
<path d="M949.655 267.517C954.345 267.517 958.148 263.716 958.148 259.029C958.148 254.341 954.345 250.54 949.655 250.54C944.964 250.54 941.162 254.341 941.162 259.029C941.162 263.716 944.964 267.517 949.655 267.517Z" fill="#F6F2E2"/>
<path d="M1027.51 267.517C1032.2 267.517 1036 263.716 1036 259.029C1036 254.341 1032.2 250.54 1027.51 250.54C1022.82 250.54 1019.01 254.341 1019.01 259.029C1019.01 263.716 1022.82 267.517 1027.51 267.517Z" fill="#6D5BF4"/>
<path d="M1027.51 343.202C1032.2 343.202 1036 339.402 1036 334.714C1036 330.026 1032.2 326.226 1027.51 326.226C1022.82 326.226 1019.01 330.026 1019.01 334.714C1019.01 339.402 1022.82 343.202 1027.51 343.202Z" fill="#57B2AD"/>
<path d="M957.157 407.004H942.153V422H957.157V407.004Z" fill="#57B2AD"/>
<path d="M941.445 343.909C941.445 334.855 948.806 327.499 957.865 327.499V343.909H941.445Z" fill="#6D5BF4"/>
<path d="M172.832 18.1079C177.835 18.1079 181.891 14.0543 181.891 9.05397C181.891 4.0536 177.835 0 172.832 0C167.829 0 163.773 4.0536 163.773 9.05397C163.773 14.0543 167.829 18.1079 172.832 18.1079Z" fill="#FAD25A"/>
<path d="M254.647 20.23C259.651 20.23 263.706 16.1764 263.706 11.176C263.706 6.17561 259.651 2.12201 254.647 2.12201C249.644 2.12201 245.588 6.17561 245.588 11.176C245.588 16.1764 249.644 20.23 254.647 20.23Z" fill="#F6F2E2"/>
<path d="M345.239 19.8056C335.614 19.8056 327.97 12.0248 327.97 2.54645H345.239V19.8056Z" fill="#6D5BF4"/>
<path d="M98.8015 85.1639H83.0895V100.867H98.8015V85.1639Z" fill="#FAD25A"/>
<path d="M82.2402 18.6738C82.2402 9.19543 90.0254 1.41467 99.5092 1.41467V18.6738H82.2402Z" fill="#6D5BF4"/>
<path d="M9.05916 99.8766C14.0624 99.8766 18.1183 95.823 18.1183 90.8226C18.1183 85.8223 14.0624 81.7687 9.05916 81.7687C4.05592 81.7687 0 85.8223 0 90.8226C0 95.823 4.05592 99.8766 9.05916 99.8766Z" fill="#F6F2E2"/>
<path d="M99.5092 184.616C89.8839 184.616 82.2402 176.835 82.2402 167.357H99.5092V184.616Z" fill="#6D5BF4"/>
</g>
<defs>
<clipPath id="clip0">
<rect width="1036" height="422" fill="white"/>
</clipPath>
</defs>
</svg>
