<svg width="652" height="656" viewBox="0 0 652 656" fill="none" xmlns="http://www.w3.org/2000/svg">
<g clip-path="url(#clip0)">
<path d="M592.646 95.9893C572.564 95.9893 556.201 79.6191 556.201 59.5284C556.201 39.4376 572.564 23.0674 592.646 23.0674C612.728 23.0674 629.091 39.4376 629.091 59.5284C629.091 79.6191 612.877 95.9893 592.646 95.9893Z" fill="#57B2AD"/>
<path d="M236.969 295.855C204.243 295.855 177.615 269.365 177.615 236.475C177.615 203.735 204.094 177.096 236.969 177.096C269.696 177.096 296.323 203.586 296.323 236.475C296.323 269.216 269.696 295.855 236.969 295.855Z" fill="#57B2AD"/>
<path d="M223.284 650.494H177.615V531.884H296.174V577.572C296.323 617.902 263.597 650.494 223.284 650.494Z" fill="#6D5BF4"/>
<path d="M118.559 118.61L59.3539 59.3793L0 118.61V0H118.559V118.61Z" fill="#6D5BF4"/>
<path d="M296.323 118.61H177.764V0C243.217 0 296.323 53.1288 296.323 118.61Z" fill="#E5584A"/>
<path d="M355.379 118.61V0H473.938L355.379 118.61Z" fill="white"/>
<path d="M592.646 296.004C559.92 296.004 533.292 269.514 533.292 236.624C533.292 203.884 559.771 177.245 592.646 177.245C625.373 177.245 652 203.735 652 236.624C652 269.365 625.373 296.004 592.646 296.004Z" fill="#E5584A"/>
<path d="M592.646 296.004C559.92 296.004 533.292 269.514 533.292 236.624C533.292 203.884 559.771 177.245 592.646 177.245C625.373 177.245 652 203.735 652 236.624C652 269.365 625.373 296.004 592.646 296.004Z" fill="#E5584A"/>
<path d="M550.697 278.74C573.903 301.956 611.389 301.956 634.447 278.74L550.548 194.806C527.64 218.022 527.64 255.524 550.697 278.74Z" fill="#FAD25A"/>
<path d="M473.938 177.245V296.004H355.379L473.938 177.245Z" fill="#6D5BF4"/>
<path d="M0 473.248C0 407.768 53.1061 354.639 118.559 354.639V473.248H0Z" fill="#6D5BF4"/>
<path d="M296.323 354.639H177.615V473.248H296.323L236.969 413.869L296.323 354.639Z" fill="#FAD25A"/>
<path d="M592.349 473.249C559.622 473.249 532.995 446.759 532.995 413.87C532.995 381.129 559.473 354.49 592.349 354.49C625.075 354.49 651.703 380.98 651.703 413.87C651.703 446.61 625.075 473.249 592.349 473.249Z" fill="#57B2AD"/>
<path d="M177.615 650.494V531.884H296.323L177.615 650.494Z" fill="#E5584A"/>
<path d="M414.585 650.494L355.379 531.884H473.938L414.585 650.494Z" fill="#6D5BF4"/>
<path d="M592.646 591.114C592.646 623.855 619.125 650.345 651.702 650.494V531.884C619.125 532.033 592.646 558.523 592.646 591.114Z" fill="white"/>
<path d="M533.143 531.884C532.995 531.884 532.995 531.884 532.846 531.884V650.494C532.995 650.494 532.995 650.494 533.143 650.494C565.87 650.494 592.497 624.004 592.497 591.114C592.497 558.374 565.87 531.884 533.143 531.884Z" fill="#FAD25A"/>
<path d="M67.9818 656C85.2375 656 100.857 649.154 112.311 637.993L66.7917 592.454L112.311 546.915C100.857 535.753 85.2375 528.907 67.9818 528.907C32.8752 528.907 4.31396 557.481 4.31396 592.603C4.31396 627.575 32.8752 656 67.9818 656Z" fill="#57B2AD"/>
<path d="M67.9818 656C85.2375 656 100.857 649.154 112.311 637.993L66.7917 592.454L112.311 546.915C100.857 535.753 85.2375 528.907 67.9818 528.907C32.8752 528.907 4.31396 557.481 4.31396 592.603C4.31396 627.575 32.8752 656 67.9818 656Z" fill="#57B2AD"/>
<path d="M651.703 354.49H592.349V413.87H651.703V354.49Z" fill="#6D5BF4"/>
<path d="M236.969 413.869H177.615V473.249L236.969 413.869Z" fill="#F6F2E2"/>
<path d="M236.969 413.869H177.615V354.639L236.969 413.869Z" fill="#F6F2E2"/>
<path d="M59.3539 59.3793L118.559 0V118.61L59.3539 59.3793Z" fill="white"/>
<path d="M473.938 118.61H355.379L473.938 0V118.61Z" fill="#57B2AD"/>
<path d="M634.298 101.347C657.504 78.1309 657.504 40.6282 634.298 17.561L550.399 101.347C573.605 124.414 611.092 124.414 634.298 101.347Z" fill="#FAD25A"/>
<path d="M22.4622 547.957L66.7917 592.305L112.311 546.766C100.857 535.605 85.2375 528.759 67.9817 528.759C50.1309 528.759 34.0652 536.051 22.4622 547.957Z" fill="white"/>
<path d="M414.682 354.473L355.358 413.823L414.682 473.173L474.007 413.823L414.682 354.473Z" fill="#E5584A"/>
<path d="M0 177.245V242.875C29.1563 243.173 52.6598 266.686 52.9573 295.855H118.559C118.559 230.374 65.4529 177.245 0 177.245Z" fill="#FAD25A"/>
</g>
<defs>
<clipPath id="clip0">
<rect width="652" height="656" fill="white"/>
</clipPath>
</defs>
</svg>
