<svg width="840" height="1057" viewBox="0 0 840 1057" fill="none" xmlns="http://www.w3.org/2000/svg">
<g clip-path="url(#clip0)">
<path d="M840 1057H420.084L840 637.484V1057Z" fill="#F6F2E2"/>
<path d="M576.714 637.484C576.714 724.436 505.945 794.802 418.742 794.132C332.21 793.462 263.118 721.923 263.118 635.473V263.035V0C117.892 0 0 117.78 0 263.035V637.484C0 869.189 187.99 1057.17 420.084 1057.17C652.01 1057.17 840.168 869.357 840.168 637.484H576.714Z" fill="#FAD25A"/>
<path d="M576.714 637.484C576.714 723.934 506.448 794.132 419.916 794.132V1057.17C651.843 1057.17 840 869.357 840 637.484H576.714Z" fill="#6D5BF4"/>
<path d="M420.084 705.169C457.501 705.169 487.834 674.865 487.834 637.484C487.834 600.102 457.501 569.798 420.084 569.798C382.667 569.798 352.334 600.102 352.334 637.484C352.334 674.865 382.667 705.169 420.084 705.169Z" fill="#F6F2E2"/>
</g>
<defs>
<clipPath id="clip0">
<rect width="840" height="1057" fill="white"/>
</clipPath>
</defs>
</svg>
