<svg width="133" height="135" viewBox="0 0 133 135" fill="none" xmlns="http://www.w3.org/2000/svg">
<path d="M68.4625 111.919C37.6209 111.919 12.527 86.9546 12.527 55.9595C12.527 25.1046 37.4807 0 68.4625 0C99.3041 0 124.398 24.9644 124.398 55.9595C124.398 86.8144 99.3041 111.919 68.4625 111.919Z" fill="#FAD25A"/>
<path d="M28.9289 95.6502C50.7984 117.529 86.126 117.529 107.855 95.6502L28.7887 16.5496C7.19955 38.4285 7.19956 73.7713 28.9289 95.6502Z" fill="#F6F2E2"/>
<path d="M59.2159 112.115C89.7253 117.227 118.486 96.7122 123.471 66.282L13.1678 47.7992C8.29689 78.148 28.8206 106.921 59.2159 112.115Z" fill="#6D5BF4"/>
</svg>
