<svg width="446" height="357" viewBox="0 0 446 357" fill="none" xmlns="http://www.w3.org/2000/svg">
<g clip-path="url(#clip0)">
<path d="M306.208 134.208H139.258V217.366H306.208V134.208Z" fill="#14140F"/>
<path d="M306.208 134.209C306.208 180.368 268.633 217.722 222.332 217.366C176.388 217.01 139.703 179.034 139.703 133.141V0H0V134.209C0 257.211 99.8135 357 223.045 357C346.186 357 446.089 257.3 446.089 134.209H306.208Z" fill="#F6F2E2"/>
<path d="M306.208 134.208C306.208 180.101 268.9 217.366 222.955 217.366V357C346.097 357 446 257.3 446 134.208H306.208Z" fill="#57B2AD"/>
<path d="M223.045 170.14C242.911 170.14 259.017 154.053 259.017 134.209C259.017 114.364 242.911 98.2773 223.045 98.2773C203.178 98.2773 187.072 114.364 187.072 134.209C187.072 154.053 203.178 170.14 223.045 170.14Z" fill="#6D5BF4"/>
<path d="M446 0.533691H306.208V134.209L380.378 143.102L446 134.209V0.533691Z" fill="#57B2AD"/>
</g>
<defs>
<clipPath id="clip0">
<rect width="446" height="357" fill="white"/>
</clipPath>
</defs>
</svg>
